<svg width="24" height="23" viewBox="0 0 24 23" fill="none" xmlns="http://www.w3.org/2000/svg">
<path d="M7.2 4.84211V2.42105C7.2 1.75526 7.4352 1.18511 7.9056 0.710579C8.3752 0.23686 8.94 0 9.6 0H14.4C15.06 0 15.6252 0.23686 16.0956 0.710579C16.5652 1.18511 16.8 1.75526 16.8 2.42105V4.84211H21.6C22.26 4.84211 22.8252 5.07937 23.2956 5.55389C23.7652 6.02761 24 6.59737 24 7.26316V13.3158H15.6V10.8947H8.4V13.3158H0V7.26316C0 6.59737 0.2352 6.02761 0.7056 5.55389C1.1752 5.07937 1.74 4.84211 2.4 4.84211H7.2ZM9.6 4.84211H14.4V2.42105H9.6V4.84211ZM10.8 15.7368V13.3158H13.2V15.7368H10.8ZM0 15.7368H8.4V18.1579H15.6V15.7368H24V20.5789C24 21.2447 23.7652 21.8149 23.2956 22.2894C22.8252 22.7631 22.26 23 21.6 23H2.4C1.74 23 1.1752 22.7631 0.7056 22.2894C0.2352 21.8149 0 21.2447 0 20.5789V15.7368Z" fill="#3A1593"/>
</svg>
