<svg width="12" height="7" viewBox="0 0 12 7" fill="#fff" xmlns="http://www.w3.org/2000/svg">
<path d="M6.23141 4.51717L10.5054 0.239171C10.5799 0.163431 10.6687 0.103275 10.7666 0.0622119C10.8646 0.0211488 10.9697 -3.98279e-08 11.0759 -3.51854e-08C11.1821 -3.05429e-08 11.2873 0.0211488 11.3852 0.062212C11.4832 0.103275 11.572 0.163431 11.6464 0.239171C11.7966 0.391651 11.8809 0.597114 11.8809 0.811171C11.8809 1.02523 11.7966 1.23069 11.6464 1.38317L6.80341 6.23017C6.65654 6.37684 6.45875 6.4612 6.25123 6.46567C6.04371 6.47014 5.84246 6.39438 5.68941 6.25417L0.812412 1.38717C0.665165 1.23495 0.583569 1.031 0.58519 0.819217C0.58681 0.607437 0.671514 0.404758 0.821074 0.254806C0.970633 0.104854 1.17309 0.0196165 1.38486 0.0174403C1.59664 0.0152642 1.8008 0.0963231 1.95341 0.24317L6.23141 4.51717Z" fill="#fff"/>
</svg>
