<svg width="7" height="12" viewBox="0 0 7 12" fill="none" xmlns="http://www.w3.org/2000/svg">
<path d="M4.51717 5.64945L0.239171 1.37545C0.163431 1.30099 0.103275 1.2122 0.062212 1.11425C0.0211488 1.0163 0 0.911156 0 0.804948C0 0.698739 0.0211488 0.593594 0.062212 0.495645C0.103275 0.397696 0.163431 0.308904 0.239171 0.234448C0.391651 0.0842143 0.597114 0 0.811171 0C1.02523 0 1.23069 0.0842143 1.38317 0.234448L6.23017 5.07745C6.37684 5.22432 6.4612 5.42211 6.46567 5.62963C6.47014 5.83715 6.39438 6.0384 6.25417 6.19145L1.38717 11.0684C1.23495 11.2157 1.031 11.2973 0.819218 11.2957C0.607437 11.294 0.404759 11.2093 0.254807 11.0598C0.104854 10.9102 0.019617 10.7078 0.0174408 10.496C0.0152646 10.2842 0.0963235 10.0801 0.243171 9.92745L4.51717 5.64945Z" fill="white"/>
</svg>
