<svg width="90" height="90" viewBox="0 0 90 90" fill="none" xmlns="http://www.w3.org/2000/svg">
<rect width="90" height="90" rx="10" fill="white"/>
<path d="M35.4471 20C34.9385 20.0675 34.4766 20.3315 34.1603 20.7356L27.4774 29.1329L23.0639 26.1906C22.8465 26.0446 22.6025 25.943 22.3457 25.8915C22.0889 25.8401 21.8246 25.8399 21.5677 25.8909C21.3109 25.9419 21.0666 26.0431 20.849 26.1887C20.6313 26.3343 20.4446 26.5214 20.2995 26.7394C20.1543 26.9574 20.0537 27.2018 20.0032 27.4588C19.9528 27.7158 19.9536 27.9801 20.0056 28.2368C20.0576 28.4934 20.1598 28.7373 20.3063 28.9543C20.4527 29.1714 20.6406 29.3574 20.8591 29.5017L26.7438 33.4248C27.1562 33.6994 27.6573 33.8077 28.1463 33.728C28.6354 33.6483 29.0761 33.3865 29.3801 32.9952L37.2262 23.1875C37.4759 22.8829 37.6281 22.5102 37.6631 22.1179C37.698 21.7256 37.614 21.3318 37.4221 20.9879C37.2301 20.644 36.9391 20.3658 36.5868 20.1896C36.2346 20.0134 35.8374 19.9474 35.4471 20V20ZM43.5385 25.8846V29.8077H71V25.8846H43.5385ZM35.4471 37.6538C34.9385 37.7213 34.4766 37.9854 34.1603 38.3894L27.4774 46.7868L23.0639 43.8445C22.6248 43.5518 22.0875 43.4456 21.5701 43.5491C21.0527 43.6527 20.5976 43.9575 20.305 44.3966C20.0124 44.8357 19.9062 45.373 20.0097 45.8904C20.1133 46.4078 20.4181 46.8629 20.8572 47.1555L26.7418 51.0786C27.1542 51.3532 27.6553 51.4616 28.1444 51.3819C28.6334 51.3022 29.0742 51.0404 29.3781 50.649L37.2243 40.8413C37.4738 40.5369 37.6259 40.1644 37.6608 39.7723C37.6958 39.3802 37.612 38.9867 37.4203 38.6429C37.2286 38.2991 36.9379 38.0209 36.586 37.8445C36.2341 37.6681 35.8373 37.6017 35.4471 37.6538V37.6538ZM43.5385 43.5385V47.4615H71V43.5385H43.5385ZM35.4471 55.3077C34.9385 55.3752 34.4766 55.6392 34.1603 56.0433L27.4774 64.4406L23.0639 61.4983C22.8465 61.3534 22.6027 61.2527 22.3464 61.2021C22.0901 61.1514 21.8263 61.1517 21.5701 61.203C21.0527 61.3066 20.5976 61.6114 20.305 62.0505C20.0124 62.4895 19.9062 63.0269 20.0097 63.5443C20.1133 64.0617 20.4181 64.5167 20.8572 64.8094L26.7418 68.7325C27.1542 69.0071 27.6553 69.1154 28.1444 69.0357C28.6334 68.956 29.0742 68.6942 29.3781 68.3029L37.2243 58.4952C37.4738 58.1907 37.6259 57.8182 37.6608 57.4261C37.6958 57.0341 37.612 56.6405 37.4203 56.2967C37.2286 55.9529 36.9379 55.6747 36.586 55.4983C36.2341 55.322 35.8373 55.2555 35.4471 55.3077ZM43.5385 61.1923V65.1154H71V61.1923H43.5385Z" fill="#E30B3F"/>
</svg>
