<svg width="90" height="90" viewBox="0 0 90 90" fill="none" xmlns="http://www.w3.org/2000/svg">
<rect width="90" height="90" rx="10" fill="white"/>
<path d="M69.2319 23.3672C69.7278 21.6927 71.4194 20.6747 73.0917 21.0933C74.7542 21.5119 75.7653 23.209 75.3472 24.8828L74.5014 28.2881C73.4319 32.582 70.593 36.0586 66.8889 38.0215V67.875C66.8889 69.6035 65.4986 71 63.7778 71C62.0569 71 60.6667 69.6035 60.6667 67.875V55.375H59.1111V67.875C59.1111 69.6035 57.7208 71 56 71C54.2792 71 52.8889 69.6035 52.8889 67.875V38.0215C49.1847 36.0586 46.3458 32.582 45.2764 28.2881L44.343 24.8828C44.0125 23.209 45.0236 21.5119 46.6861 21.0933C48.3583 20.6748 50.05 21.6927 50.4583 23.3672L51.3139 26.7715C52.2958 30.7256 55.8347 33.4121 59.8889 33.4121C63.943 33.4121 67.4819 30.7256 68.4639 26.7715L69.2319 23.3672V23.3672ZM55.2222 25.5996C55.2222 23.0986 57.3125 21 59.8889 21C62.4653 21 64.5555 23.0986 64.5555 25.5996C64.5555 28.2764 62.4653 30.2871 59.8889 30.2871C57.3125 30.2871 55.2222 28.2764 55.2222 25.5996V25.5996ZM24.1121 25.6875C24.1121 23.0986 26.2014 21 28.7787 21C31.3542 21 33.4444 23.0986 33.4444 25.6875C33.4444 28.2764 31.3542 30.375 28.7787 30.375C26.2014 30.375 24.1121 28.2764 24.1121 25.6875V25.6875ZM31.1792 33.5C33.843 33.5 36.3222 34.8672 37.7417 37.1231L41.3778 42.875H44.3333C46.0542 42.875 47.4444 44.2715 47.4444 46C47.4444 47.7285 46.0542 49.125 44.3333 49.125H39.6667C38.5972 49.125 37.6153 48.5781 36.9542 47.6699L35.7778 45.6777V67.875C35.7778 69.6035 34.3875 71 32.6667 71C30.9458 71 29.5555 69.6035 29.5555 67.875V55.375H28V67.875C28 69.6035 26.6078 71 24.8889 71C23.171 71 21.7783 69.6035 21.7783 67.875V49.1836L21.7778 49.0371V39.6621C21.7778 36.3027 24.5632 33.4121 28 33.4121L31.1792 33.5V33.5Z" fill="#E30B3F"/>
</svg>
