<svg width="90" height="90" viewBox="0 0 90 90" fill="none" xmlns="http://www.w3.org/2000/svg">
<rect width="90" height="90" rx="10" fill="white"/>
<path d="M37.2623 23L34.9436 33.9156L24.0516 36.5117L35.01 38.8204L37.6162 49.6727L39.9321 38.7543L50.826 36.1619L39.8685 33.8523L37.2623 23ZM66.018 23.4963L57.4585 32.022L62.1271 36.6723L70.6858 28.1463L66.018 23.4963ZM54.3454 35.1224L24 65.3495L28.6683 70L59.0137 39.7729L54.345 35.1224H54.3454V35.1224ZM63.7546 40.5357L62.5161 46.3676L56.6955 47.7565L62.5501 48.9894L63.9417 54.7873L65.1794 48.9555L71 47.5665L65.1453 46.3336L63.7546 40.5357V40.5357ZM54.2072 51.1328L52.8423 57.5642L46.4254 59.0908L52.8801 60.4503L54.4145 66.844L55.7794 60.4127L62.1963 58.8843L55.7425 57.5239L54.2072 51.1328V51.1328Z" fill="#E30B3F"/>
</svg>
