<svg width="90" height="90" viewBox="0 0 90 90" fill="none" xmlns="http://www.w3.org/2000/svg">
<rect width="90" height="90" rx="10" fill="white"/>
<path d="M57.9792 22.3334C59.1552 22.3333 60.2867 22.7832 61.1415 23.5909C61.9963 24.3986 62.5097 25.5027 62.5762 26.6769L62.5833 26.9375V30.8334H65.0625C69.1708 30.8334 72.5 34.1625 72.5 38.2709V57.3959C72.5 58.617 72.0149 59.7881 71.1515 60.6515C70.288 61.515 69.1169 62 67.8958 62H62.5833V64.4792C62.5833 65.7003 62.0982 66.8714 61.2348 67.7348C60.3714 68.5983 59.2003 69.0834 57.9792 69.0834H36.0208C34.7997 69.0834 33.6286 68.5983 32.7652 67.7348C31.9017 66.8714 31.4167 65.7003 31.4167 64.4792V62H26.1042C24.8831 62 23.712 61.515 22.8485 60.6515C21.9851 59.7881 21.5 58.617 21.5 57.3959V38.2709C21.5 34.1625 24.8292 30.8334 28.9375 30.8334H31.4167V26.9375C31.4166 25.7615 31.8665 24.63 32.6742 23.7752C33.4819 22.9204 34.586 22.407 35.7602 22.3405L36.0208 22.3334H57.9792ZM34.9583 64.4792C34.9583 65.0657 35.4343 65.5417 36.0208 65.5417H57.9792C58.261 65.5417 58.5312 65.4298 58.7305 65.2305C58.9297 65.0313 59.0417 64.761 59.0417 64.4792V52.4375C59.0417 52.1557 58.9297 51.8855 58.7305 51.6862C58.5312 51.487 58.261 51.375 57.9792 51.375H36.0208C35.739 51.375 35.4688 51.487 35.2695 51.6862C35.0703 51.8855 34.9583 52.1557 34.9583 52.4375V64.4792ZM57.9792 25.875H36.0208C35.7641 25.8751 35.516 25.968 35.3225 26.1368C35.129 26.3056 35.0032 26.5387 34.9682 26.793L34.9583 26.9375V30.8334H59.0417V26.9375C59.0417 26.6808 58.9487 26.4327 58.7799 26.2392C58.6112 26.0457 58.378 25.9199 58.1237 25.885L57.9792 25.875Z" fill="#E30B3F"/>
</svg>
