<svg width="26" height="24" viewBox="0 0 26 24" fill="none" xmlns="http://www.w3.org/2000/svg">
<path d="M1.23621 1.26305C0.470996 2.02329 0 3.0626 0 4.21017V17.4421C0 18.5587 0.455851 19.6296 1.26727 20.4191C2.07869 21.2087 3.17922 21.6523 4.32674 21.6523H12.9975C13.0606 21.3491 13.1755 21.0508 13.3437 20.7669L14.2461 19.2465H4.32674C3.83494 19.2465 3.36329 19.0564 3.01554 18.718C2.66779 18.3796 2.47242 17.9206 2.47242 17.4421V6.01452H19.7794V7.52296C20.5702 7.24475 21.4154 7.144 22.2518 7.22825V4.21017C22.2518 3.0626 21.7808 2.02329 21.0156 1.26305V1.20291H20.9538C20.1457 0.430504 19.0578 -0.0015757 17.9251 4.31811e-06H4.32674C3.14739 4.31811e-06 2.07931 0.45831 1.29802 1.20291H1.23621V1.26305ZM21.2777 8.42033C21.6739 8.38473 22.0732 8.40254 22.4644 8.47325L20.4234 11.9112C20.3216 12.071 20.2538 12.249 20.2241 12.4348C20.1944 12.6206 20.2033 12.8103 20.2503 12.9927C20.2974 13.175 20.3816 13.3463 20.498 13.4964C20.6144 13.6465 20.7606 13.7723 20.9279 13.8664C21.0952 13.9604 21.2802 14.0208 21.472 14.044C21.6637 14.0671 21.8583 14.0525 22.0442 14.0011C22.2301 13.9497 22.4034 13.8624 22.5539 13.7446C22.7045 13.6267 22.8292 13.4806 22.9206 13.3149L24.9616 9.87584C25.5207 10.5121 25.8722 11.2961 25.9712 12.1277C26.0703 12.9593 25.9124 13.8008 25.5177 14.5446C25.123 15.2885 24.5094 15.901 23.7553 16.304C23.0011 16.7069 22.1407 16.8821 21.2838 16.807L17.5369 23.1222C17.2979 23.5253 16.9041 23.8195 16.4422 23.9401C15.9802 24.0607 15.488 23.9977 15.0737 23.7652C14.6595 23.5326 14.3571 23.1494 14.2332 22.6999C14.1093 22.2504 14.174 21.7715 14.413 21.3684L18.1538 15.0652C17.7099 14.4624 17.4375 13.7562 17.3642 13.018C17.2909 12.2799 17.4193 11.536 17.7363 10.8616C18.0533 10.1873 18.5478 9.60637 19.1697 9.17768C19.7915 8.74899 20.5187 8.48772 21.2777 8.42033ZM10.263 8.71263C10.3454 8.79989 10.4094 8.9021 10.4512 9.01342C10.493 9.12473 10.5119 9.24298 10.5067 9.36139C10.5015 9.4798 10.4724 9.59606 10.4211 9.70352C10.3697 9.81099 10.2971 9.90756 10.2074 9.98771L7.24419 12.6305L10.2074 15.2733C10.3887 15.435 10.4965 15.6602 10.5072 15.8993C10.5179 16.1385 10.4305 16.3719 10.2643 16.5483C10.098 16.7248 9.86659 16.8297 9.62084 16.8401C9.3751 16.8505 9.13518 16.7654 8.95387 16.6037L5.24524 13.2957C5.15044 13.2112 5.07473 13.1084 5.02294 12.9939C4.97115 12.8794 4.94441 12.7556 4.94441 12.6305C4.94441 12.5054 4.97115 12.3816 5.02294 12.2671C5.07473 12.1526 5.15044 12.0498 5.24524 11.9653L8.95387 8.6573C9.04363 8.57717 9.14873 8.51504 9.26318 8.47446C9.37762 8.43388 9.49916 8.41563 9.62085 8.42077C9.74254 8.42591 9.862 8.45433 9.9724 8.50441C10.0828 8.55449 10.182 8.62524 10.2643 8.71263H10.263ZM13.916 16.6037L16.4132 14.3759C16.0111 13.2424 16.0076 12.0111 16.4033 10.8755L13.916 8.6573C13.8262 8.57721 13.7211 8.51511 13.6067 8.47455C13.4923 8.43398 13.3707 8.41575 13.2491 8.42089C13.1274 8.42603 13.0079 8.45444 12.8975 8.50449C12.7871 8.55455 12.6879 8.62528 12.6056 8.71263C12.5233 8.79999 12.4595 8.90226 12.4178 9.01362C12.3761 9.12498 12.3574 9.24323 12.3627 9.36163C12.368 9.48003 12.3972 9.59626 12.4486 9.70369C12.5 9.81111 12.5727 9.90762 12.6625 9.98771L15.6257 12.6305L12.6625 15.2733C12.4812 15.435 12.3733 15.6602 12.3627 15.8993C12.352 16.1385 12.4394 16.3719 12.6056 16.5483C12.7719 16.7248 13.0033 16.8297 13.2491 16.8401C13.4948 16.8505 13.7347 16.7654 13.916 16.6037Z" fill="#3A1593"/>
</svg>
