<svg width="24" height="31" viewBox="0 0 24 31" fill="none" xmlns="http://www.w3.org/2000/svg">
<g filter="url(#filter0_d_167_96)">
<path d="M11.8695 10.6185C12.9629 10.6185 13.8493 9.73975 13.8493 8.65579C13.8493 7.57183 12.9629 6.6931 11.8695 6.6931C10.776 6.6931 9.88965 7.57183 9.88965 8.65579C9.88965 9.73975 10.776 10.6185 11.8695 10.6185Z" fill="#3A1593"/>
<path d="M11.7171 4.27659C11.7171 4.27659 9.58482 2.76562 5.92894 2.76562C5.92894 2.76562 1.2072 8.95641 6.5386 14.5433C6.5386 14.5444 5.92894 6.0887 11.7171 4.27659Z" fill="#3A1593"/>
<path d="M15.9832 6.69257C15.9832 6.69257 16.5924 4.57878 16.5924 1.55894C16.5924 1.55894 11.7187 -2.36696 6.43201 2.24148C6.43043 2.24044 12.6311 2.1628 15.9832 6.69257Z" fill="#3A1593"/>
<path d="M13.2402 13.0345C13.2402 13.0345 14.4585 15.1482 15.6773 16.6582C15.6773 16.6582 24.2063 9.41074 17.3034 2.3436C17.3034 2.34464 17.3308 9.1471 13.2402 13.0345Z" fill="#3A1593"/>
<path d="M8.0618 8.50468L15.0677 19.0741L12.3263 23L7.14783 15.1482C7.14783 15.1482 7.14783 11.5245 8.0618 8.50468Z" fill="#3A1593"/>
</g>
<defs>
<filter id="filter0_d_167_96" x="0" y="1.52588e-05" width="24" height="31" filterUnits="userSpaceOnUse" color-interpolation-filters="sRGB">
<feFlood flood-opacity="0" result="BackgroundImageFix"/>
<feColorMatrix in="SourceAlpha" type="matrix" values="0 0 0 0 0 0 0 0 0 0 0 0 0 0 0 0 0 0 127 0" result="hardAlpha"/>
<feOffset dy="4"/>
<feGaussianBlur stdDeviation="2"/>
<feComposite in2="hardAlpha" operator="out"/>
<feColorMatrix type="matrix" values="0 0 0 0 0 0 0 0 0 0 0 0 0 0 0 0 0 0 0.25 0"/>
<feBlend mode="normal" in2="BackgroundImageFix" result="effect1_dropShadow_167_96"/>
<feBlend mode="normal" in="SourceGraphic" in2="effect1_dropShadow_167_96" result="shape"/>
</filter>
</defs>
</svg>
