<svg width="25" height="20" viewBox="0 0 25 20" fill="none" xmlns="http://www.w3.org/2000/svg">
<path d="M12.5 0C5.59635 0 0 5.75625 0 12.8571C0 15.2143 0.61849 17.4223 1.69531 19.3214C1.9388 19.7509 2.40278 20 2.88628 20H22.1137C22.5972 20 23.0612 19.7509 23.3047 19.3214C24.3815 17.4223 25 15.2143 25 12.8571C25 5.75625 19.4036 0 12.5 0ZM12.5 2.85714C13.1385 2.85714 13.6536 3.30938 13.816 3.91295C13.7678 4.01384 13.7014 4.10179 13.6662 4.21071L13.2661 5.44598C13.0434 5.60179 12.7899 5.71429 12.5004 5.71429C11.7335 5.71429 11.1115 5.07455 11.1115 4.28571C11.1115 3.49687 11.7331 2.85714 12.5 2.85714ZM4.16667 15.7143C3.39974 15.7143 2.77778 15.0746 2.77778 14.2857C2.77778 13.4969 3.39974 12.8571 4.16667 12.8571C4.93359 12.8571 5.55556 13.4969 5.55556 14.2857C5.55556 15.0746 4.93359 15.7143 4.16667 15.7143ZM6.25 8.57143C5.48307 8.57143 4.86111 7.9317 4.86111 7.14286C4.86111 6.35402 5.48307 5.71429 6.25 5.71429C7.01693 5.71429 7.63889 6.35402 7.63889 7.14286C7.63889 7.9317 7.01693 8.57143 6.25 8.57143ZM16.9605 5.33884L14.2986 13.5531C14.8928 14.0772 15.2778 14.8455 15.2778 15.7143C15.2778 16.2375 15.1311 16.721 14.8924 17.1429H10.1076C9.86892 16.721 9.72222 16.2375 9.72222 15.7143C9.72222 14.1991 10.8724 12.9719 12.322 12.8754L14.9844 4.66071C15.1654 4.1 15.7539 3.79241 16.3021 3.98348C16.8477 4.17054 17.1419 4.77768 16.9605 5.33884ZM17.5968 7.89241L18.2704 5.81429C18.421 5.7567 18.5799 5.71473 18.75 5.71473C19.5169 5.71473 20.1389 6.35446 20.1389 7.1433C20.1389 7.93214 19.5169 8.57187 18.75 8.57187C18.2561 8.57143 17.8433 8.29152 17.5968 7.89241ZM20.8333 15.7143C20.0664 15.7143 19.4444 15.0746 19.4444 14.2857C19.4444 13.4969 20.0664 12.8571 20.8333 12.8571C21.6003 12.8571 22.2222 13.4969 22.2222 14.2857C22.2222 15.0746 21.6003 15.7143 20.8333 15.7143Z" fill="white"/>
</svg>
