<svg width="91" height="86" viewBox="0 0 91 86" fill="none" xmlns="http://www.w3.org/2000/svg">
<path d="M27.3 18.1053V9.05263C27.3 6.56316 28.1918 4.43126 29.9754 2.65695C31.756 0.885649 33.8975 0 36.4 0H54.6C57.1025 0 59.2456 0.885649 61.0292 2.65695C62.8097 4.43126 63.7 6.56316 63.7 9.05263V18.1053H81.9C84.4025 18.1053 86.5456 18.9924 88.3292 20.7667C90.1097 22.538 91 24.6684 91 27.1579V49.7895H59.15V40.7368H31.85V49.7895H0V27.1579C0 24.6684 0.8918 22.538 2.6754 20.7667C4.45597 18.9924 6.5975 18.1053 9.1 18.1053H27.3ZM36.4 18.1053H54.6V9.05263H36.4V18.1053ZM40.95 58.8421V49.7895H50.05V58.8421H40.95ZM0 58.8421H31.85V67.8947H59.15V58.8421H91V76.9474C91 79.4368 90.1097 81.5687 88.3292 83.343C86.5456 85.1143 84.4025 86 81.9 86H9.1C6.5975 86 4.45597 85.1143 2.6754 83.343C0.8918 81.5687 0 79.4368 0 76.9474V58.8421Z" fill="#0A17A7"/>
</svg>
