<svg width="95" height="90" viewBox="0 0 95 90" fill="none" xmlns="http://www.w3.org/2000/svg">
<path d="M4.51692 4.73645C1.72095 7.58733 0 11.4847 0 15.7881V65.4079C0 69.5951 1.66561 73.6109 4.63042 76.5718C7.59522 79.5326 11.6164 81.196 15.8092 81.196H47.4909C47.7213 80.0592 48.1414 78.9405 48.7557 77.876L52.053 72.1742H15.8092C14.0123 72.1742 12.2889 71.4613 11.0183 70.1924C9.74768 68.9235 9.03385 67.2024 9.03385 65.4079V22.5545H72.2708V28.2111C75.1603 27.1678 78.2484 26.79 81.3046 27.1059V15.7881C81.3046 11.4847 79.5837 7.58733 76.7877 4.73645V4.5109H76.5619C73.6093 1.61439 69.6342 -0.00590888 65.4954 1.61929e-05H15.8092C11.5001 1.61929e-05 7.59747 1.71866 4.74277 4.5109H4.51692V4.73645ZM77.7453 31.5762C79.193 31.4427 80.6522 31.5095 82.0815 31.7747L74.6241 44.6668C74.2521 45.2661 74.0044 45.9339 73.8957 46.6306C73.7871 47.3272 73.8197 48.0386 73.9916 48.7225C74.1635 49.4063 74.4713 50.0487 74.8965 50.6116C75.3218 51.1744 75.856 51.6461 76.4673 51.9989C77.0786 52.3516 77.7547 52.578 78.4554 52.6648C79.156 52.7516 79.867 52.697 80.5461 52.5041C81.2252 52.3112 81.8586 51.9841 82.4086 51.5421C82.9587 51.1001 83.4143 50.5522 83.7483 49.931L91.2057 37.0344C93.2486 39.4205 94.5329 42.3605 94.8948 45.479C95.2567 48.5975 94.6798 51.7529 93.2376 54.5424C91.7954 57.3319 89.5535 59.6288 86.7981 61.1399C84.0426 62.651 80.8988 63.3077 77.7679 63.0261L64.0771 86.7083C63.2038 88.2199 61.7649 89.3231 60.0771 89.7753C58.3893 90.2274 56.5907 89.9915 55.0771 89.1194C53.5635 88.2472 52.4588 86.8103 52.006 85.1247C51.5532 83.4392 51.7895 81.643 52.6628 80.1314L66.331 56.4944C64.7092 54.2338 63.714 51.5856 63.4462 48.8176C63.1783 46.0496 63.6473 43.26 64.8057 40.7312C65.9641 38.2023 67.7708 36.0239 70.043 34.4163C72.3152 32.8087 74.9722 31.829 77.7453 31.5762ZM37.4995 32.6724C37.8007 32.9996 38.0343 33.3829 38.1871 33.8003C38.3398 34.2178 38.4088 34.6612 38.3899 35.1052C38.371 35.5492 38.2647 35.9852 38.077 36.3882C37.8894 36.7912 37.6241 37.1533 37.2962 37.4539L26.4692 47.3643L37.2962 57.2747C37.9587 57.8813 38.3528 58.7258 38.3917 59.6225C38.4307 60.5193 38.1114 61.3947 37.504 62.0563C36.8967 62.7179 36.051 63.1114 35.1531 63.1503C34.2552 63.1892 33.3786 62.8703 32.7161 62.2638L19.1653 49.8588C18.8189 49.5419 18.5423 49.1565 18.3531 48.727C18.1638 48.2976 18.0661 47.8335 18.0661 47.3643C18.0661 46.8951 18.1638 46.4311 18.3531 46.0016C18.5423 45.5722 18.8189 45.1868 19.1653 44.8698L32.7161 32.4649C33.044 32.1644 33.4281 31.9314 33.8462 31.7792C34.2644 31.627 34.7085 31.5586 35.1531 31.5779C35.5977 31.5972 36.0342 31.7037 36.4376 31.8915C36.841 32.0793 37.2034 32.3447 37.504 32.6724H37.4995ZM50.847 62.2638L59.9712 53.9096C58.502 49.6591 58.4893 45.0415 59.9351 40.7829L50.847 32.4649C50.519 32.1645 50.1349 31.9317 49.7168 31.7796C49.2987 31.6274 48.8546 31.5591 48.41 31.5783C47.9654 31.5976 47.529 31.7041 47.1256 31.8918C46.7222 32.0796 46.3598 32.3448 46.0591 32.6724C45.7583 33 45.5252 33.3835 45.3728 33.8011C45.2205 34.2187 45.1521 34.6621 45.1713 35.1061C45.1906 35.5501 45.2973 35.986 45.4853 36.3888C45.6733 36.7917 45.9388 37.1536 46.2669 37.4539L57.0939 47.3643L46.2669 57.2747C45.6044 57.8813 45.2103 58.7258 45.1713 59.6225C45.1324 60.5193 45.4517 61.3947 46.0591 62.0563C46.6664 62.7179 47.5121 63.1114 48.41 63.1503C49.3079 63.1892 50.1845 62.8703 50.847 62.2638Z" fill="#E30B3F"/>
</svg>
