<svg width="96" height="87" viewBox="0 0 96 87" fill="none" xmlns="http://www.w3.org/2000/svg">
<path d="M87.2727 0H8.72727C6.41478 0.00688486 4.19898 0.9257 2.56379 2.55578C0.928602 4.18585 0.00690645 6.39473 0 8.7V60.9C0.00690645 63.2053 0.928602 65.4141 2.56379 67.0442C4.19898 68.6743 6.41478 69.5931 8.72727 69.6H39.2727V78.3H30.5455V87H65.4545V78.3H56.7273V69.6H87.2727C89.5852 69.5931 91.801 68.6743 93.4362 67.0442C95.0714 65.4141 95.9931 63.2053 96 60.9V8.7C95.9931 6.39473 95.0714 4.18585 93.4362 2.55578C91.801 0.9257 89.5852 0.00688486 87.2727 0ZM42.5542 50.7471H42.5498L21.8225 30.0846L27.9971 23.9381L42.5542 38.4497L68.016 13.0631L74.1906 19.2183L42.5542 50.7471Z" fill="#1A9A2F"/>
</svg>
