<svg width="68" height="92" viewBox="0 0 68 92" fill="none" xmlns="http://www.w3.org/2000/svg">
<path d="M59.5 11.5H49.9587C47.6177 4.81562 41.3844 0 34 0C26.6156 0 20.3823 4.81562 18.0448 11.5H8.5C3.80729 11.5 0 15.3597 0 20.125V83.375C0 88.1367 3.80729 92 8.5 92H59.5C64.1927 92 68 88.1403 68 83.375V20.125C68 15.3597 64.1927 11.5 59.5 11.5ZM17 70.4375C14.6536 70.4375 12.75 68.5059 12.75 66.125C12.75 63.7441 14.6536 61.8125 17 61.8125C19.3464 61.8125 21.25 63.7441 21.25 66.125C21.25 68.5059 19.3552 70.4375 17 70.4375ZM17 53.1875C14.6536 53.1875 12.75 51.2559 12.75 48.875C12.75 46.4941 14.6536 44.5625 17 44.5625C19.3464 44.5625 21.25 46.5031 21.25 48.875C21.25 51.2469 19.3552 53.1875 17 53.1875ZM34 11.5C37.1291 11.5 39.6667 14.0749 39.6667 17.25C39.6667 20.4251 37.1291 23 34 23C30.8709 23 28.3333 20.4305 28.3333 17.25C28.3333 14.0749 30.8656 11.5 34 11.5ZM53.8333 69H31.1667C29.6083 69 28.3333 67.7063 28.3333 66.125C28.3333 64.5437 29.6083 63.25 31.1667 63.25H53.8333C55.3918 63.25 56.6667 64.5436 56.6667 66.125C56.6667 67.7063 55.3917 69 53.8333 69ZM53.8333 51.75H31.1667C29.6083 51.75 28.3333 50.4562 28.3333 48.875C28.3333 47.2938 29.6083 46 31.1667 46H53.8333C55.3917 46 56.6667 47.2938 56.6667 48.875C56.6667 50.4562 55.3917 51.75 53.8333 51.75Z" fill="#F2AD22"/>
</svg>
